<mxfile host="Electron" modified="2023-05-30T01:53:05.738Z" agent="Mozilla/5.0 (Macintosh; Intel Mac OS X 10_15_7) AppleWebKit/537.36 (KHTML, like Gecko) draw.io/21.2.8 Chrome/112.0.5615.165 Electron/24.2.0 Safari/537.36" etag="_Y-fkJmfxxWC3ewWQYk5" version="21.2.8" type="device">
  <diagram name="Page-1" id="G5gbXoaZbaZ6ohgpXtbu">
    <mxGraphModel dx="1114" dy="740" grid="1" gridSize="10" guides="1" tooltips="1" connect="1" arrows="1" fold="1" page="1" pageScale="1" pageWidth="850" pageHeight="1100" math="0" shadow="0">
      <root>
        <mxCell id="0" />
        <mxCell id="1" parent="0" />
        <mxCell id="eCo9j55MbGwQ6MdnKBfV-2" value="" style="rounded=0;whiteSpace=wrap;html=1;" vertex="1" parent="1">
          <mxGeometry x="100" y="70" width="830" height="580" as="geometry" />
        </mxCell>
        <mxCell id="eCo9j55MbGwQ6MdnKBfV-3" value="Enter your Zip Code" style="rounded=0;whiteSpace=wrap;html=1;fontStyle=1" vertex="1" parent="1">
          <mxGeometry x="440" y="300" width="190" height="30" as="geometry" />
        </mxCell>
        <mxCell id="eCo9j55MbGwQ6MdnKBfV-5" value="Search Cheaper Green Energy" style="rounded=0;whiteSpace=wrap;html=1;" vertex="1" parent="1">
          <mxGeometry x="460" y="340" width="150" height="40" as="geometry" />
        </mxCell>
        <mxCell id="eCo9j55MbGwQ6MdnKBfV-6" value="&lt;font style=&quot;font-size: 32px;&quot;&gt;Clean Energy PA&lt;/font&gt;" style="text;strokeColor=none;align=center;fillColor=none;html=1;verticalAlign=middle;whiteSpace=wrap;rounded=0;" vertex="1" parent="1">
          <mxGeometry x="215" y="150" width="640" height="30" as="geometry" />
        </mxCell>
        <mxCell id="eCo9j55MbGwQ6MdnKBfV-7" value="Did you know that PA state law allows you to switch energy suppliers from PECO?&lt;br&gt;&lt;br&gt;And - you can actually switch to 100% renewable energy&amp;nbsp;&lt;b style=&quot;border-color: var(--border-color);&quot;&gt;cheaper&lt;/b&gt;&amp;nbsp;&lt;b style=&quot;border-color: var(--border-color);&quot;&gt;than the default PECO rate?&lt;/b&gt;" style="text;strokeColor=none;align=center;fillColor=none;html=1;verticalAlign=middle;whiteSpace=wrap;rounded=0;" vertex="1" parent="1">
          <mxGeometry x="400" y="220" width="270" height="30" as="geometry" />
        </mxCell>
        <mxCell id="eCo9j55MbGwQ6MdnKBfV-8" value="Clean Energy PA is an open-source application made by graduate students at Penn State.&lt;br&gt;&lt;br&gt;The service is free, and aims to help make it easier to sign up and track for suppliers -- finding an initial green rate at below PECO&#39;s price, keeping track of your contract lengts and alerting you when cheaper ones are available, or when you&#39;re is about to expire.&lt;br&gt;&lt;br&gt;It&#39;s 100% free, the code is open-source, and all data is kept private." style="text;strokeColor=none;align=center;fillColor=none;html=1;verticalAlign=middle;whiteSpace=wrap;rounded=0;" vertex="1" parent="1">
          <mxGeometry x="317.5" y="470" width="435" height="10" as="geometry" />
        </mxCell>
      </root>
    </mxGraphModel>
  </diagram>
</mxfile>
